<?xml version="1.0"?>
<svg width="864.81" height="658.45" xmlns="http://www.w3.org/2000/svg" xmlns:svg="http://www.w3.org/2000/svg" xmlns:se="http://svg-edit.googlecode.com" xmlns:xlink="http://www.w3.org/1999/xlink" data-name="Layer 1">
 <defs>
  <linearGradient id="e6219774-622b-406f-ae45-f26a74b1f5cd" x1="0.500152" x2="0.500152" y1="1.000014" y2="0.000046">
   <stop offset="0" stop-color="gray" stop-opacity="0.25"/>
   <stop offset="0.54" stop-color="gray" stop-opacity="0.12"/>
   <stop offset="1" stop-color="gray" stop-opacity="0.1"/>
  </linearGradient>
  <linearGradient id="2394db48-9094-48a1-80b4-38413320a0c3" x1="309.42" x2="309.42" xlink:href="#e6219774-622b-406f-ae45-f26a74b1f5cd" y1="623" y2="461"/>
  <linearGradient id="43bfcda2-dcfb-4411-a28b-16db327cb63c" x1="664.42" x2="664.42" xlink:href="#e6219774-622b-406f-ae45-f26a74b1f5cd" y1="277" y2="115"/>
  <symbol id="svg_48" preserveAspectRatio="xMidYMid" viewBox="0 0 256 206" xmlns="http://www.w3.org/2000/svg" xmlns:xlink="http://www.w3.org/1999/xlink">
   <g id="svg_28">
    <path d="m170.251694,56.8186l22.253006,-22.252998l1.483002,-9.370001c-40.550995,-36.873001 -105.012001,-32.692001 -141.567001,8.724001c-10.153999,11.502998 -17.687,25.843998 -21.704,40.653l7.969999,-1.123001l44.505005,-7.338997l3.435997,-3.514004c19.796997,-21.742001 53.270004,-24.667 76.128006,-6.167999l7.495987,0.389999z" fill="#EA4335" id="svg_29"/>
    <path d="m224.204803,73.918198c-5.115005,-18.835999 -15.615997,-35.768997 -30.21701,-48.721996l-31.231995,31.232002c13.188004,10.775997 20.701004,27.009998 20.378998,44.036999l0,5.543999c15.350998,0 27.796997,12.445 27.796997,27.796005c0,15.35199 -12.445999,27.485001 -27.796997,27.485001l-55.670998,0l-5.465996,5.93399l0,33.339996l5.465996,5.231003l55.670998,0c39.930008,0.311005 72.552002,-31.494003 72.863007,-71.423996c0.187988,-24.203003 -11.744995,-46.892998 -31.792999,-60.453003" fill="#4285F4" id="svg_37"/>
    <path d="m71.870399,205.7957l55.593002,0l0,-44.505997l-55.593002,0c-3.960999,-0.001007 -7.796997,-0.852005 -11.398998,-2.498001l-7.887001,2.419998l-22.409,22.253006l-1.952,7.57399c12.567001,9.488998 27.900002,14.824997 43.646999,14.757004" fill="#34A853" id="svg_39"/>
    <path d="m71.870399,61.425499c-39.931,0.238003 -72.107002,32.802002 -71.868995,72.732002c0.133,22.298004 10.547,43.287994 28.222,56.880997l32.248001,-32.246994c-13.991001,-6.320999 -20.208,-22.786011 -13.887001,-36.776001c6.32,-13.990005 22.785995,-20.207001 36.775002,-13.887001c6.165001,2.784996 11.102005,7.723 13.887001,13.887001l32.247993,-32.247002c-13.721001,-17.937004 -35.041,-28.424 -57.624001,-28.343002" fill="#FBBC05" id="svg_40"/>
   </g>
  </symbol>
 </defs>
 <title>cloud hosting</title>
 <g class="layer">
  <title>Layer 1</title>
  <g id="svg_1" opacity="0.7">
   <path d="m338.799988,353.160004l-0.589996,-0.140015l0,-22.599976a120.230003,120.230003 0 0 0 89.789978,-97.089996l0.290039,0c5.769958,0 10.440002,-8.769989 10.440002,-19.579987c0,-6.710022 -1.800049,-12.619995 -4.540039,-16.150024q0.619995,-6.199982 0.630005,-12.569977a125,125 0 0 0 -38.619995,-90.490005a80.540001,80.540001 0 0 0 -8.869995,-23.809998c-8.899963,-15.680008 -23.710022,-32 -17.669983,-49l-39.100006,4l-0.360016,-25.760002c-12.199982,2.189995 -17.309998,16.329994 -24.549988,26.400002c-17.410004,24.220001 -52.350006,27.589996 -75.459991,46.449997c-7.850006,6.410004 -25.51001,25.899994 -22.190002,38.679993a124.75,124.75 0 0 0 -23.839996,73.530014q0,6.359985 0.630005,12.569977c-2.740021,3.530029 -4.540009,9.440002 -4.540009,16.150024c0,10.819977 4.679993,19.579987 10.440002,19.579987l0.289978,0a120.230003,120.230003 0 0 0 89.790009,97.089996l0,22.600006l-0.589996,0.139984c-13.459991,-1.570007 -149.299988,-11.940002 -119.51001,211.460052l18.269989,67.359924l4.070007,-0.159973a28.719999,28.719999 0 0 0 56.390015,5.110046c25.869995,-0.090027 55.089996,-0.170044 70,-0.170044s44.179993,0.090027 70,0.170044a28.719999,28.719999 0 0 0 56.440002,-5.110046l4.070007,0.159973l18.27002,-67.359924c29.929993,-223.400055 -105.920044,-213.03006 -119.380035,-211.460052z" fill="url(#e6219774-622b-406f-ae45-f26a74b1f5cd)" id="svg_2"/>
  </g>
  <rect fill="#e0e0e0" height="21.88" id="svg_3" width="645.61" y="625.16"/>
  <rect fill="#e0e0e0" height="8.95" id="svg_4" width="590.89" x="27.36" y="647.05"/>
  <rect height="2.98" id="svg_5" opacity="0.1" width="590.89" x="27.36" y="647.05"/>
  <path d="m361,747.609985s86.630005,-0.339966 116.089996,-0.339966s116.089996,0.339966 116.089996,0.339966l0,-12.609985l-232.179993,0l0,12.609985z" id="svg_6" opacity="0.1" transform="translate(-167.6 -120.78)"/>
  <path d="m593.190002,745.080017s-86.630005,-0.340027 -116.089996,-0.340027s-116.089996,0.340027 -116.089996,0.340027l0,-159.340027a116.089996,116.089996 0 0 1 116.079987,-116.089996l0,0a116.089996,116.089996 0 0 1 116.100006,116.089996l0,159.340027z" fill="#6c63ff" id="svg_7" transform="translate(-167.6 -120.78)"/>
  <path d="m298.5,290.829987l22,0a16.76,16.76 0 0 1 16.76001,16.76001l0,46.329987a27.76,27.76 0 0 1 -27.76001,27.76001l0,0a27.76,27.76 0 0 1 -27.76001,-27.76001l0,-46.329987a16.76,16.76 0 0 1 16.76001,-16.76001z" fill="#fdb797" id="svg_8"/>
  <path d="m281.72998,332.890015a116.169998,116.169998 0 0 0 55.519989,0l0,-39.540009l-55.519989,0l0,39.540009z" id="svg_9" opacity="0.1"/>
  <circle cx="309.5" cy="189.88" fill="#333" id="svg_10" r="121.14"/>
  <circle cx="309.5" cy="217.64" fill="#fdb797" id="svg_11" r="116.09"/>
  <path d="m400.440002,202.190002c22.329987,-18.229996 56.109985,-21.479996 72.940002,-44.900009c7,-9.729996 11.929993,-23.399994 23.72998,-25.519989l0.350006,24.899994l37.790009,-3.880005c-5.830017,16.420013 8.47998,32.230011 17.080017,47.380005a77.93,77.93 0 0 1 10.089966,36.680008c-13.119995,7.87999 -29.389954,-0.720001 -44,-5.310013c-14.199982,-4.459991 -29.289978,-4.919998 -44.169983,-5.339996c-7.630005,-0.220001 -15.349976,-0.419998 -22.799988,1.25c-6.529999,1.470001 -12.640015,4.339996 -18.820007,6.930008c-10.049988,4.209991 -41.790009,20.089996 -51.130005,9.849991c-10.579987,-11.610001 10.320007,-35 18.940002,-42.039993z" fill="#333" id="svg_12" transform="translate(-167.6 -120.78)"/>
  <path d="m406.75,280.200012c6.160004,3.730011 13.399994,5.200012 20.529999,6.179993a180.860001,180.860001 0 0 0 88.110016,-9.899994c4.599976,11.660004 15.829956,19.670013 27.769958,23.480011s24.690002,4 37.220032,4.149994c2.76001,0 5.719971,0 8,-1.529999c5.580017,-3.77002 2.880005,-12.399994 -0.369995,-18.300018l-16.169983,-29.279999c-4.779968,-8.660004 -9.700012,-17.5 -17.099976,-24.059998c-9.280029,-8.210007 -21.600037,-12.059998 -33.75,-14.490005a190.339996,190.339996 0 0 0 -86.640015,2.889999c-30.220032,8.130005 -69.040039,35.779999 -27.600037,60.860016z" id="svg_13" opacity="0.1" transform="translate(-167.6 -120.78)"/>
  <path d="m406.75,277.679993c6.160004,3.730011 13.399994,5.200012 20.529999,6.179993a180.860001,180.860001 0 0 0 88.110016,-9.899994c4.599976,11.660004 15.829956,19.670013 27.769958,23.480011s24.690002,4 37.220032,4.149994c2.76001,0 5.719971,0 8,-1.529999c5.580017,-3.77002 2.880005,-12.399994 -0.369995,-18.300018l-16.169983,-29.319992c-4.780029,-8.660004 -9.700012,-17.5 -17.100037,-24.059998c-9.279968,-8.210007 -21.599976,-12.059998 -33.75,-14.490005a190.339996,190.339996 0 0 0 -86.639984,2.889999c-30.220001,8.160019 -69.040009,35.810013 -27.600006,60.900009z" fill="#333" id="svg_14" transform="translate(-167.6 -120.78)"/>
  <ellipse cx="424.33" cy="217.64" fill="#fdb797" id="svg_15" rx="10.1" ry="18.93"/>
  <ellipse cx="194.67" cy="217.64" fill="#fdb797" id="svg_16" rx="10.1" ry="18.93"/>
  <path d="m504.390015,473.269989s146.839966,-22.869995 116.559998,204.269989l-17.659973,65.109985l-50.480042,-2s32.809998,-75.709961 12.619995,-126.190002s-61.039978,-141.189972 -61.039978,-141.189972z" fill="#6c63ff" id="svg_17" transform="translate(-167.6 -120.78)"/>
  <path d="m449.799988,473.269989s-146.799988,-22.869995 -116.559998,204.269989l17.660004,65.109985l50.480011,-2s-32.810028,-75.709961 -12.620026,-126.190002s61.040009,-141.189972 61.040009,-141.189972z" fill="#6c63ff" id="svg_18" transform="translate(-167.6 -120.78)"/>
  <path d="m386.23999,573.359985s-10.100006,78 7.570007,100.710022" id="svg_19" opacity="0.1" transform="translate(-167.6 -120.78)"/>
  <path d="m567.950012,575.359985s10.099976,76 -7.570007,98.710022" id="svg_20" opacity="0.1" transform="translate(-167.6 -120.78)"/>
  <circle cx="404.08" cy="619.68" fill="#fdb797" id="svg_21" r="27.76"/>
  <circle cx="214.91" cy="619.68" fill="#fdb797" id="svg_22" r="27.76"/>
  <g id="svg_23" opacity="0.7">
   <rect fill="url(#2394db48-9094-48a1-80b4-38413320a0c3)" height="162" id="svg_24" rx="21.34" ry="21.34" width="182.77" x="218.04" y="461"/>
  </g>
  <rect fill="#e0e0e0" height="156" id="svg_25" rx="21.34" ry="21.34" width="176" x="221.42" y="464"/>
  <path d="m443.450012,729.710022l0,-11.710022a1.16,1.16 0 0 0 -1.320007,-1.179993a12.53,12.53 0 0 0 -4.829987,1.070007l0,11.789978l-3.300018,0l0,-21.679993l3.290009,0l0,7.159973a15.7,15.7 0 0 1 5.289978,-1.069946c3,0 4.110016,1.839966 4.110016,4.359985l0,11.25l-3.26001,0l0.02002,0.01001zm9.410004,-7.080017c0.109985,3.920044 0.880005,4.690002 3.290009,4.690002a17,17 0 0 0 5.679993,-1.26001l0.549988,2.470032a15.37,15.37 0 0 1 -6.440002,1.559998c-5.48999,0 -6.339996,-3 -6.339996,-7.820007a26.07,26.07 0 0 1 0.820007,-7.210022a18.82,18.82 0 0 1 6.609985,-1c4.5,0 5.870026,2.5 5.870026,6.860046l0,1.669983l-10,0l-0.040009,0.039978zm4.169983,-5.789978a22.049999,22.049999 0 0 0 -3.839996,0.27002a17.450001,17.450001 0 0 0 -0.359985,3.23999l6.859985,0c0,-2.280029 -0.410004,-3.51001 -2.660004,-3.51001zm12,1.070007l0,11.789978l-3.289978,0l0,-13.27002a19,19 0 0 1 7.629974,-2.109985l0,2.73999a14,14 0 0 0 -4.329987,0.849976l-0.01001,0.000061zm13,12.179993c-4.910004,0 -7.129974,-2.410034 -7.129974,-7.929993c0,-5.840027 2.929993,-8.059998 7.129974,-8.059998c4.910004,0 7.130005,2.409973 7.130005,7.929993c0,5.839966 -2.940002,8.059998 -7.130005,8.059998zm0,-13.25c-2.519989,0 -3.919983,1.450012 -3.919983,5.320007c0,4.219971 1.179993,5.159973 3.919983,5.159973c2.52002,0 3.920013,-1.429993 3.920013,-5.289978c0,-4.220032 -1.179993,-5.179993 -3.920013,-5.179993l0,-0.01001zm23,12.859985l-3.869995,0a21.440001,21.440001 0 0 0 -4.109985,-7l-1.730011,0l0,7l-3.220001,0l0,-21.700012l3.290009,0l0,12.450012l1.540009,0a20,20 0 0 0 3.869995,-6l3.699982,0a25.74,25.74 0 0 1 -4.690002,6.640015a46.5,46.5 0 0 1 5.290009,8.579956l-0.070007,0.030029zm6.170013,0.380005c-3,0 -4.110016,-1.840027 -4.110016,-4.359985l0,-11.230042l3.26001,0l0,11.659973a1.16,1.16 0 0 0 1.320007,1.180054a13.31,13.31 0 0 0 4.999969,-1.070007l0,-11.77002l3.330017,0l0,13.219971a17.450001,17.450001 0 0 1 -8.730011,2.380066l-0.069977,-0.01001zm-1.450012,-27.609985l-65.570007,0a10.16,10.16 0 0 1 -10.179993,-10.150024l0,-86.25a10.16,10.16 0 0 1 10.160004,-10.159973l65.630005,0a10.17,10.17 0 0 1 10.209991,10.159973l0,86.25a10.16,10.16 0 0 1 -10.170013,10.159973l-0.079987,-0.009949z" fill="#6762a6" id="svg_26" transform="translate(-167.6 -120.78)"/>
  <path d="m487.890015,687.820007l0,-42.320007s2.75,-10.130005 -33.910004,4.140015c-0.070007,0.179993 -0.070007,-39.140015 -0.070007,-39.140015l12,-0.070007l0,25.190002s33.540009,-13.210022 33.540009,10l0,42.179993l-11.559998,0l0,0.02002zm6.829987,-62.150024l-12.720001,0c4.570007,-5.589966 8.709991,-15.169983 8.709991,-15.169983l13.140015,0s-2.25,6.23999 -9.149994,15.169983l0.019989,0zm-40.589996,62.070007l0,-24.099976l12.050018,12.049988l-12.050018,12.049988z" fill="#fff" id="svg_27" transform="translate(-167.6 -120.78)"/>
  <rect fill="#e0e0e0" height="156" id="svg_30" rx="21.34" ry="21.34" width="176" x="467.42" y="462"/>
  <path d="m527,524.219971a14.49,14.49 0 0 0 0.529968,4.260071a25.639999,25.639999 0 0 0 1.530029,3.450012a2.08,2.08 0 0 1 0.340027,1.099976a1.9,1.9 0 0 1 -0.910034,1.440002l-3,2a2.3,2.3 0 0 1 -1.25,0.429932a2.2,2.2 0 0 1 -1.440063,-0.669983a14.82,14.82 0 0 1 -1.719971,-2.25c-0.47998,-0.809937 -1,-1.719971 -1.47998,-2.829956a17.690001,17.690001 0 0 1 -14.080017,6.609924c-4,0 -7.230042,-1.149963 -9.580017,-3.449951a13.51,13.51 0 0 1 0.810059,-19.059998c2.919983,-2.490051 6.799927,-3.740021 11.72998,-3.740021a37.919998,37.919998 0 0 1 5.079956,0.380005c1.77002,0.240021 3.590088,0.619965 5.51001,1.049957l0,-3.499969c0,-3.639954 -0.769958,-6.179993 -2.25,-7.659973s-4.119995,-2.200012 -7.809937,-2.200012a21.790001,21.790001 0 0 0 -5.169983,0.619995a38.16,38.16 0 0 0 -5.170044,1.630005a13.74,13.74 0 0 1 -1.679993,0.619995a2.94,2.94 0 0 1 -0.77002,0.140015c-0.670044,0 -1,-0.47998 -1,-1.47998l0,-2.350037a3,3 0 0 1 0.339966,-1.679993a3.59,3.59 0 0 1 1.340027,-1a27.57,27.57 0 0 1 6,-2.159973a29,29 0 0 1 7.470032,-0.910034c5.699951,0 9.869995,1.290039 12.549988,3.880005s4,6.51001 4,11.780029l0,15.549957l0.080017,0zm-19.440063,7.280029a15.52,15.52 0 0 0 4.930054,-0.859985a10.67,10.67 0 0 0 4.549927,-3.070068a7.6,7.6 0 0 0 1.630066,-3.069946a17.190001,17.190001 0 0 0 0.480042,-4.170044l0,-2a40,40 0 0 0 -4.410034,-0.809998a36.09,36.09 0 0 0 -4.5,-0.289978c-3.209961,0 -5.559998,0.620056 -7.140015,1.920044a6.84,6.84 0 0 0 4.449951,12.359924l0.01001,-0.009949zm38.460083,5.170044a2.67,2.67 0 0 1 -1.820068,-0.480103a3.9,3.9 0 0 1 -1,-1.869995l-11.25,-36.999969a8.39,8.39 0 0 1 -0.429993,-1.919983a1.05,1.05 0 0 1 1.150024,-1.200012l4.690002,0a2.65,2.65 0 0 1 1.869934,0.480042a3.92,3.92 0 0 1 1,1.869995l8,31.709991l7.470032,-31.709991a3.36,3.36 0 0 1 0.910034,-1.869995a3.29,3.29 0 0 1 1.919922,-0.480042l3.830078,0a2.88,2.88 0 0 1 1.919922,0.480042a3.23,3.23 0 0 1 0.910034,1.869995l7.570007,32.089996l8.290039,-32.089996a4.11,4.11 0 0 1 1,-1.869995a3.12,3.12 0 0 1 1.869995,-0.480042l4.450012,0a1.06,1.06 0 0 1 1.199951,1.200012a4.78,4.78 0 0 1 -0.099976,0.77002a6.81,6.81 0 0 1 -0.339966,1.200012l-11.5401,36.999969a3.67,3.67 0 0 1 -1,1.869995a3.06,3.06 0 0 1 -1.819946,0.47998l-4.119934,0a2.88,2.88 0 0 1 -1.920105,-0.47998a3.4,3.4 0 0 1 -0.909973,-1.920044l-7.419922,-30.889923l-7.380005,30.839935a3.74,3.74 0 0 1 -0.910034,1.919983a3,3 0 0 1 -1.920044,0.480103l-4.169922,0zm61.539917,1.289978a31.690001,31.690001 0 0 1 -7.379944,-0.860046a21.790001,21.790001 0 0 1 -5.51001,-1.919922a3.45,3.45 0 0 1 -1.480042,-1.340027a3.38,3.38 0 0 1 -0.289978,-1.340027l0,-2.439941c0,-1 0.379944,-1.480103 1.100037,-1.480103a2.71,2.71 0 0 1 0.859985,0.140015c0.290039,0.099976 0.719971,0.290039 1.200012,0.47998a26.049999,26.049999 0 0 0 5.269958,1.679993a28.76,28.76 0 0 0 5.700012,0.570007a12.92,12.92 0 0 0 7,-1.579895a5.16,5.16 0 0 0 2.48999,-4.55011a4.66,4.66 0 0 0 -1.290039,-3.349976a12,12 0 0 0 -4.839905,-2.489929l-6.98999,-2.160095c-3.500061,-1.099976 -6.080078,-2.72998 -7.659973,-4.890015a11.41,11.41 0 0 1 -2.390076,-6.939972a10.66,10.66 0 0 1 1.290039,-5.320007a12.31,12.31 0 0 1 3.450012,-3.929993a15.2,15.2 0 0 1 5,-2.48999a20.870001,20.870001 0 0 1 6,-0.809998a24,24 0 0 1 3.210022,0.190002c1.099976,0.140015 2.109985,0.340027 3.109985,0.530029s1.869934,0.47998 2.72998,0.769958a10.45,10.45 0 0 1 2,0.860046a4.14,4.14 0 0 1 1.439941,1.199951a2.58,2.58 0 0 1 0.430054,1.580017l0,2.25c0,1 -0.380066,1.530029 -1.099976,1.530029a5,5 0 0 1 -1.820007,-0.570007a21.91,21.91 0 0 0 -9.200012,-1.869995a12.36,12.36 0 0 0 -6.370056,1.339966a4.62,4.62 0 0 0 -2.25,4.26001a4.52,4.52 0 0 0 1.440002,3.400024a14.31,14.31 0 0 0 5.27002,2.630005l6.799988,2.159943c3.450012,1.100037 5.940002,2.630005 7.419983,4.599976a10.84,10.84 0 0 1 2.200073,6.710022a12.31,12.31 0 0 1 -1.25,5.559998a12.88,12.88 0 0 1 -3.5,4.210022a15.44,15.44 0 0 1 -5.320068,2.680054a22.77,22.77 0 0 1 -6.849915,1l0.079895,0z" fill="#252f3e" id="svg_31"/>
  <path d="m617.609985,565.219971c-15.759949,11.640015 -38.649963,17.820068 -58.330017,17.820068a105.529999,105.529999 0 0 1 -71.21991,-27.160095c-1.480103,-1.339905 -0.140015,-3.159973 1.630005,-2.109985a141.440002,141.440002 0 0 0 125.619934,7.809998c2.630066,-1.199951 4.890015,1.720093 2.299988,3.640015z" fill="#f90" id="svg_32" transform="matrix(1 0 0 1 0 0)"/>
  <path d="m624.170044,556.769958c-2,-2.589966 -13.310059,-1.25 -18.440063,-0.619934c-1.529968,0.189941 -1.769958,-1.150024 -0.380005,-2.159973c9,-6.320007 23.800049,-4.500061 25.530029,-2.390015s-0.47998,17 -8.910034,24c-1.289917,1.099915 -2.539917,0.529968 -2,-0.910095c1.950073,-4.709961 6.210083,-15.389893 4.200073,-17.919983z" fill="#f90" id="svg_33" transform="matrix(1 0 0 1 0 0)"/>
  <g id="svg_34" opacity="0.7" transform="matrix(1 0 0 1 0 0)">
   <rect fill="url(#43bfcda2-dcfb-4411-a28b-16db327cb63c)" height="162" id="svg_35" rx="21.34" ry="21.34" width="182.77" x="222.04" y="461"/>
  </g>
  <rect fill="#e0e0e0" height="156" id="svg_36" rx="21.34" ry="21.34" transform="matrix(1 0 0 1 0 0)" width="176" x="222.42" y="460"/>
  <use id="svg_49" transform="matrix(0.205523 0 0 0.225486 227.036 420.739)" x="-20.13437" xlink:href="#svg_48" y="194.434869"/>
  <g id="svg_50"/>
 </g>
</svg>